# This file uses centimeters as units for non-parametric coordinates.

v 0.000000 1.007883 0.408424
v -0.630065 1.000000 0.322297
v -0.793933 1.000000 -0.000000
v -0.630065 1.000000 -0.322297
v 0.000000 1.007883 -0.418576
v 0.000000 -0.416068 -0.000000
v 0.000000 1.158156 -0.322297
v 0.000000 1.399953 0.000000
v 0.000000 1.158156 0.322298
v -0.792406 1.489777 -0.000000
v -0.353553 1.000000 -0.389047
v -0.359914 1.346646 -0.322297
v -0.383483 1.770341 -0.000000
v -0.359914 1.346646 0.322297
v -0.353553 1.000000 0.389047
v -0.530330 1.000000 -0.355672
v -0.574852 1.181546 -0.322297
v -0.613386 1.691769 -0.000000
v -0.574852 1.181546 0.322297
v -0.530330 1.000000 0.355672
v -0.176777 1.000000 -0.412271
v -0.151335 1.181546 -0.322297
v -0.116667 1.647246 -0.000000
v -0.151335 1.181546 0.322297
v -0.176777 1.000000 0.402120
v 0.000000 1.334271 0.161149
v -0.115545 1.483897 0.161149
v -0.381239 1.597871 0.161149
v -0.610020 1.528419 0.161149
v -0.756117 1.302029 0.161149
v -0.741836 1.000000 0.161149
v 0.000000 1.334271 -0.161149
v -0.115545 1.483897 -0.161149
v -0.381239 1.597871 -0.161149
v -0.610020 1.528419 -0.161149
v -0.756117 1.302029 -0.161149
v -0.741836 1.000000 -0.161149
v 0.176777 1.000000 0.402120
v 0.353553 1.000000 0.389047
v 0.530330 1.000000 0.355672
v 0.630065 1.000000 0.322297
v 0.741836 1.000000 0.161149
v 0.793933 1.000000 0.000000
v 0.741836 1.000000 -0.161149
v 0.630065 1.000000 -0.322297
v 0.530330 1.000000 -0.355672
v 0.353553 1.000000 -0.389047
v 0.176777 1.000000 -0.412271
v 0.151336 1.181546 -0.322297
v 0.116667 1.647246 0.000000
v 0.115545 1.483897 -0.161149
v 0.115545 1.483897 0.161149
v 0.151336 1.181546 0.322297
v 0.792406 1.489777 0.000000
v 0.756117 1.302029 -0.161149
v 0.756117 1.302029 0.161149
v 0.574852 1.181546 -0.322297
v 0.359914 1.346646 -0.322297
v 0.613386 1.691769 -0.000000
v 0.383483 1.770341 -0.000000
v 0.381239 1.597871 -0.161149
v 0.610020 1.528419 -0.161149
v 0.359914 1.346646 0.322297
v 0.381239 1.597871 0.161149
v 0.610020 1.528419 0.161149
v 0.574852 1.181546 0.322297
vt 0.491941 0.294732
vt 0.386475 0.291317
vt 0.753874 0.522545
vt 0.116043 0.291317
vt 0.175545 0.291317
vt 0.281010 0.291317
vt 0.049360 0.291317
vt 0.018279 0.291317
vt 0.578287 0.809144
vt 0.547138 0.809144
vt 0.753874 0.810739
vt 0.704610 0.809144
vt 0.606081 0.809144
vt 0.655345 0.809144
vt 0.753874 0.841153
vt 0.711700 0.845887
vt 0.422337 0.571755
vt 0.491941 0.464608
vt 0.721674 0.907080
vt 0.753874 0.876797
vt 0.423006 0.500979
vt 0.401654 0.369977
vt 0.491941 0.436149
vt 0.491941 0.359842
vt 0.019190 0.503527
vt 0.543158 0.870272
vt 0.040840 0.422179
vt 0.653573 0.879302
vt 0.593673 0.845887
vt 0.647005 0.965053
vt 0.647630 0.930147
vt 0.125994 0.591045
vt 0.583873 0.916091
vt 0.148983 0.369977
vt 0.277215 0.441511
vt 0.128002 0.520270
vt 0.264493 0.550361
vt 0.597406 0.291317
vt 0.867838 0.291317
vt 0.808336 0.291317
vt 0.702871 0.291317
vt 0.934521 0.291317
vt 0.965602 0.291317
vt 0.929461 0.809144
vt 0.960610 0.809144
vt 0.803138 0.809144
vt 0.901667 0.809144
vt 0.852403 0.809144
vt 0.796048 0.845887
vt 0.561544 0.571755
vt 0.786074 0.907080
vt 0.560875 0.500979
vt 0.582228 0.369977
vt 0.964692 0.503527
vt 0.964589 0.870272
vt 0.943041 0.422179
vt 0.854175 0.879302
vt 0.914074 0.845887
vt 0.720727 0.625089
vt 0.857888 0.591045
vt 0.860118 0.930147
vt 0.923875 0.916091
vt 0.834898 0.369977
vt 0.855879 0.520270
vt 0.706666 0.441511
vt 0.719388 0.550361
vt 0.860743 0.965053
vt 0.786387 0.940140
vt 0.974703 0.908270
vt 0.924813 0.949151
vt 0.975128 0.809144
vt 0.753874 0.890091
vt 0.491941 -0.322234
vt 0.721361 0.940140
vt 0.582935 0.949151
vt 0.263154 0.625089
vt 0.533045 0.908270
vt 0.532620 0.809144
vn -0.021982 -0.275641 0.961009
vn -0.046266 -0.278217 0.959404
vn -0.136539 -0.298895 0.944468
vn -0.298863 -0.336245 0.893096
vn -0.235518 -0.318800 0.918095
vn -0.122621 -0.291272 0.948749
vn -0.736322 -0.443856 0.510707
vn -0.792529 -0.460659 0.399613
vn -0.792529 -0.460659 0.399613
vn -0.839521 -0.470686 0.271401
vn -0.736322 -0.443856 -0.510707
vn -0.792529 -0.460659 -0.399614
vn -0.792529 -0.460659 -0.399614
vn -0.839521 -0.470686 -0.271401
vn -0.021635 -0.281955 -0.959184
vn -0.150834 -0.303342 -0.940868
vn -0.072458 -0.287125 -0.955149
vn -0.298863 -0.336245 -0.893096
vn -0.235518 -0.318800 -0.918095
vn -0.150414 -0.296650 -0.943066
vn -0.054006 0.538677 -0.840780
vn 0.009656 0.486277 -0.873751
vn 0.009656 0.486277 -0.873751
vn 0.067303 0.435461 -0.897688
vn 0.831990 0.392512 -0.392081
vn 0.807437 0.494880 -0.321152
vn 0.807437 0.494880 -0.321152
vn 0.768005 0.593072 -0.241730
vn 0.477358 0.368628 0.797648
vn 0.306482 0.530347 0.790443
vn 0.306482 0.530347 0.790443
vn 0.103771 0.671420 0.733776
vn -0.050701 0.407921 0.911608
vn 0.010205 0.451403 0.892262
vn 0.010205 0.451403 0.892262
vn 0.076627 0.495791 0.865054
vn -0.974801 0.003038 -0.223057
vn -0.963766 -0.021205 -0.265904
vn -0.963766 -0.021205 -0.265904
vn -0.950552 -0.044944 -0.307295
vn -0.821078 -0.038822 0.569494
vn -0.821078 -0.038822 0.569494
vn -0.821078 -0.038822 0.569494
vn -0.141845 0.184664 -0.972512
vn -0.162977 0.159335 -0.973679
vn -0.162977 0.159335 -0.973679
vn -0.183849 0.133932 -0.973787
vn -0.226713 0.663365 -0.713126
vn -0.217388 0.674086 -0.705939
vn -0.217388 0.674086 -0.705939
vn -0.207880 0.684779 -0.698473
vn -0.290885 0.378694 0.878622
vn -0.228281 0.450890 0.862894
vn -0.228281 0.450890 0.862894
vn -0.158910 0.523468 0.837096
vn -0.141845 0.184664 0.972512
vn -0.162977 0.159335 0.973679
vn -0.162977 0.159335 0.973679
vn -0.183849 0.133932 0.973787
vn -0.315873 0.096065 -0.943926
vn -0.315873 0.096065 -0.943926
vn -0.315873 0.096065 -0.943926
vn -0.649423 0.419094 -0.634515
vn -0.635104 0.482652 -0.603068
vn -0.635104 0.482652 -0.603068
vn -0.616563 0.546446 -0.566787
vn -0.500006 0.322670 0.803665
vn -0.544151 0.251777 0.800318
vn -0.544151 0.251777 0.800318
vn -0.585110 0.177947 0.791190
vn -0.315873 0.096065 0.943926
vn -0.315873 0.096065 0.943926
vn -0.315873 0.096065 0.943926
vn 0.150077 0.189599 -0.970324
vn 0.031087 0.314238 -0.948835
vn 0.031087 0.314238 -0.948835
vn -0.116052 0.454064 -0.883379
vn 0.301297 0.653083 -0.694769
vn 0.295141 0.663224 -0.687769
vn 0.295141 0.663224 -0.687769
vn 0.288851 0.673364 -0.680549
vn 0.327620 0.413897 0.849326
vn 0.281752 0.476298 0.832920
vn 0.281752 0.476298 0.832920
vn 0.231263 0.539116 0.809859
vn 0.150077 0.189599 0.970324
vn 0.050252 0.294868 0.954216
vn 0.050252 0.294868 0.954216
vn -0.067280 0.409468 0.909840
vn 0.831990 0.392512 0.392081
vn 0.807437 0.494881 0.321152
vn 0.807437 0.494881 0.321152
vn 0.768005 0.593072 0.241730
vn 0.301297 0.653083 0.694769
vn 0.295141 0.663224 0.687769
vn 0.295141 0.663224 0.687769
vn 0.288851 0.673364 0.680549
vn -0.226713 0.663365 0.713126
vn -0.217388 0.674086 0.705940
vn -0.217388 0.674086 0.705940
vn -0.207880 0.684778 0.698473
vn -0.649423 0.419094 0.634516
vn -0.635103 0.482652 0.603068
vn -0.635103 0.482652 0.603068
vn -0.616563 0.546446 0.566787
vn -0.974801 0.003038 0.223057
vn -0.963766 -0.021205 0.265904
vn -0.963766 -0.021205 0.265904
vn -0.950552 -0.044944 0.307295
vn 0.477359 0.368628 -0.797648
vn 0.306482 0.530347 -0.790443
vn 0.306482 0.530347 -0.790443
vn 0.103772 0.671420 -0.733775
vn 0.327620 0.413897 -0.849326
vn 0.281752 0.476298 -0.832920
vn 0.281752 0.476298 -0.832920
vn 0.231263 0.539116 -0.809859
vn -0.290886 0.378695 -0.878622
vn -0.228281 0.450890 -0.862894
vn -0.228281 0.450890 -0.862894
vn -0.158910 0.523468 -0.837096
vn -0.500006 0.322670 -0.803665
vn -0.544151 0.251777 -0.800318
vn -0.544151 0.251777 -0.800318
vn -0.585110 0.177947 -0.791190
vn -0.821079 -0.038822 -0.569493
vn -0.821079 -0.038822 -0.569493
vn -0.821079 -0.038822 -0.569493
vn 0.021982 -0.275641 0.961009
vn 0.136539 -0.298895 0.944468
vn 0.046266 -0.278217 0.959404
vn 0.298863 -0.336245 0.893096
vn 0.235517 -0.318800 0.918095
vn 0.122621 -0.291272 0.948749
vn 0.736322 -0.443856 0.510707
vn 0.792529 -0.460659 0.399613
vn 0.792529 -0.460659 0.399613
vn 0.839521 -0.470686 0.271401
vn 0.736322 -0.443856 -0.510707
vn 0.792529 -0.460659 -0.399613
vn 0.792529 -0.460659 -0.399613
vn 0.839521 -0.470686 -0.271401
vn 0.021635 -0.281955 -0.959184
vn 0.072457 -0.287125 -0.955149
vn 0.150834 -0.303342 -0.940868
vn 0.298863 -0.336245 -0.893096
vn 0.235517 -0.318800 -0.918095
vn 0.150414 -0.296650 -0.943066
vn 0.051842 0.449281 -0.891885
vn -0.012655 0.493242 -0.869800
vn -0.012655 0.493242 -0.869800
vn -0.083089 0.537599 -0.839097
vn -0.831990 0.392512 -0.392081
vn -0.807437 0.494880 -0.321152
vn -0.807437 0.494880 -0.321152
vn -0.768006 0.593072 -0.241730
vn -0.477358 0.368628 0.797648
vn -0.306482 0.530347 0.790443
vn -0.306482 0.530347 0.790443
vn -0.103771 0.671420 0.733775
vn 0.050701 0.407922 0.911608
vn -0.010205 0.451403 0.892262
vn -0.010205 0.451403 0.892262
vn -0.076627 0.495791 0.865054
vn 0.974801 0.003038 -0.223057
vn 0.963766 -0.021205 -0.265904
vn 0.963766 -0.021205 -0.265904
vn 0.950552 -0.044944 -0.307295
vn 0.821079 -0.038822 0.569493
vn 0.821079 -0.038822 0.569493
vn 0.821079 -0.038822 0.569493
vn 0.141846 0.184664 -0.972512
vn 0.162977 0.159335 -0.973679
vn 0.162977 0.159335 -0.973679
vn 0.183849 0.133932 -0.973787
vn 0.226712 0.663365 -0.713126
vn 0.217388 0.674086 -0.705940
vn 0.217388 0.674086 -0.705940
vn 0.207880 0.684778 -0.698473
vn 0.290885 0.378695 0.878622
vn 0.228281 0.450890 0.862894
vn 0.228281 0.450890 0.862894
vn 0.158910 0.523468 0.837095
vn 0.141845 0.184664 0.972512
vn 0.162977 0.159335 0.973679
vn 0.162977 0.159335 0.973679
vn 0.183849 0.133932 0.973787
vn 0.315873 0.096065 -0.943926
vn 0.315873 0.096065 -0.943926
vn 0.315873 0.096065 -0.943926
vn 0.649423 0.419094 -0.634515
vn 0.635104 0.482652 -0.603068
vn 0.635104 0.482652 -0.603068
vn 0.616563 0.546445 -0.566787
vn 0.500006 0.322670 0.803665
vn 0.544151 0.251777 0.800318
vn 0.544151 0.251777 0.800318
vn 0.585110 0.177947 0.791190
vn 0.315873 0.096065 0.943926
vn 0.315873 0.096065 0.943926
vn 0.315873 0.096065 0.943926
vn -0.150077 0.189599 -0.970324
vn -0.031087 0.314238 -0.948835
vn -0.031087 0.314238 -0.948835
vn 0.116051 0.454064 -0.883379
vn -0.301297 0.653083 -0.694768
vn -0.295141 0.663224 -0.687769
vn -0.295141 0.663224 -0.687769
vn -0.288851 0.673364 -0.680549
vn -0.327620 0.413897 0.849326
vn -0.281752 0.476298 0.832920
vn -0.281752 0.476298 0.832920
vn -0.231263 0.539116 0.809859
vn -0.150077 0.189599 0.970324
vn -0.050252 0.294868 0.954216
vn -0.050252 0.294868 0.954216
vn 0.067280 0.409468 0.909840
vn -0.831990 0.392512 0.392081
vn -0.807437 0.494881 0.321152
vn -0.807437 0.494881 0.321152
vn -0.768005 0.593072 0.241730
vn -0.301297 0.653083 0.694768
vn -0.295141 0.663224 0.687769
vn -0.295141 0.663224 0.687769
vn -0.288851 0.673364 0.680549
vn 0.226712 0.663365 0.713126
vn 0.217388 0.674086 0.705940
vn 0.217388 0.674086 0.705940
vn 0.207880 0.684778 0.698473
vn 0.649423 0.419094 0.634515
vn 0.635104 0.482652 0.603068
vn 0.635104 0.482652 0.603068
vn 0.616563 0.546445 0.566787
vn 0.974801 0.003038 0.223057
vn 0.963766 -0.021205 0.265903
vn 0.963766 -0.021205 0.265903
vn 0.950552 -0.044944 0.307295
vn -0.477359 0.368628 -0.797648
vn -0.306482 0.530347 -0.790443
vn -0.306482 0.530347 -0.790443
vn -0.103772 0.671420 -0.733776
vn -0.327620 0.413896 -0.849326
vn -0.281752 0.476298 -0.832920
vn -0.281752 0.476298 -0.832920
vn -0.231263 0.539116 -0.809859
vn 0.290885 0.378694 -0.878622
vn 0.228281 0.450890 -0.862894
vn 0.228281 0.450890 -0.862894
vn 0.158910 0.523468 -0.837095
vn 0.500006 0.322670 -0.803665
vn 0.544151 0.251777 -0.800318
vn 0.544151 0.251777 -0.800318
vn 0.585110 0.177947 -0.791190
vn 0.821079 -0.038822 -0.569493
vn 0.821079 -0.038822 -0.569493
vn 0.821079 -0.038822 -0.569493
f 1/1/1 25/2/2 6/73/3
f 2/4/4 6/73/3 20/5/5
f 20/5/5 6/73/3 15/6/6
f 25/2/2 15/6/6 6/73/3
f 2/4/7 31/7/8 6/73/9
f 31/7/8 3/8/10 6/73/9
f 4/9/11 6/3/12 37/10/13
f 3/78/14 37/10/13 6/3/12
f 5/11/15 6/3/16 21/12/17
f 4/9/18 16/13/19 6/3/16
f 16/13/19 11/14/20 6/3/16
f 11/14/20 21/12/17 6/3/16
f 5/11/21 21/12/22 7/15/23
f 22/16/24 7/15/23 21/12/22
f 23/74/25 8/72/26 33/19/27
f 8/72/26 32/20/28 33/19/27
f 27/21/29 24/22/30 26/23/31
f 9/24/32 26/23/31 24/22/30
f 25/2/33 1/1/34 24/22/35
f 1/1/34 9/24/36 24/22/35
f 10/77/37 36/26/38 3/78/39
f 3/78/39 36/26/38 37/10/40
f 2/4/41 30/27/42 31/7/43
f 12/28/44 11/14/45 17/29/46
f 17/29/46 11/14/45 16/13/47
f 13/30/48 34/31/49 18/75/50
f 18/75/50 34/31/49 35/33/51
f 19/34/52 14/35/53 29/36/54
f 14/35/53 28/37/55 29/36/54
f 14/35/56 19/34/57 15/6/58
f 15/6/58 19/34/57 20/5/59
f 4/9/60 17/29/61 16/13/62
f 36/26/63 10/77/64 35/33/65
f 10/77/64 18/75/66 35/33/65
f 29/36/67 30/27/68 19/34/69
f 19/34/69 30/27/68 2/4/70
f 20/5/71 19/34/72 2/4/73
f 12/28/74 22/16/75 11/14/76
f 22/16/75 21/12/77 11/14/76
f 13/30/78 23/74/79 34/31/80
f 23/74/79 33/19/81 34/31/80
f 24/22/82 27/21/83 14/35/84
f 27/21/83 28/37/85 14/35/84
f 14/35/86 15/6/87 24/22/88
f 25/2/89 24/22/88 15/6/87
f 23/17/90 27/21/91 8/18/92
f 27/21/91 26/23/93 8/18/92
f 13/76/94 28/37/95 23/17/96
f 28/37/95 27/21/97 23/17/96
f 13/76/98 18/32/99 28/37/100
f 29/36/101 28/37/100 18/32/99
f 30/27/102 29/36/103 10/25/104
f 29/36/103 18/32/105 10/25/104
f 10/25/106 3/8/107 30/27/108
f 31/7/109 30/27/108 3/8/107
f 33/19/110 32/20/111 22/16/112
f 32/20/111 7/15/113 22/16/112
f 22/16/114 12/28/115 33/19/116
f 34/31/117 33/19/116 12/28/115
f 17/29/118 35/33/119 12/28/120
f 35/33/119 34/31/121 12/28/120
f 35/33/122 17/29/123 36/26/124
f 36/26/124 17/29/123 4/9/125
f 37/10/126 36/26/127 4/9/128
f 1/1/129 6/73/130 38/38/131
f 41/39/132 40/40/133 6/73/130
f 40/40/133 39/41/134 6/73/130
f 6/73/130 39/41/134 38/38/131
f 41/39/135 6/73/136 42/42/137
f 6/73/136 43/43/138 42/42/137
f 45/44/139 44/45/140 6/3/141
f 43/71/142 6/3/141 44/45/140
f 5/11/143 48/46/144 6/3/145
f 45/44/146 6/3/145 46/47/147
f 46/47/147 6/3/145 47/48/148
f 6/3/145 48/46/144 47/48/148
f 48/46/149 5/11/150 49/49/151
f 49/49/151 5/11/150 7/15/152
f 50/68/153 51/51/154 8/72/155
f 51/51/154 32/20/156 8/72/155
f 52/52/157 26/23/158 53/53/159
f 9/24/160 53/53/159 26/23/158
f 38/38/161 53/53/162 1/1/163
f 1/1/163 53/53/162 9/24/164
f 54/69/165 43/71/166 55/55/167
f 43/71/166 44/45/168 55/55/167
f 41/39/169 42/42/170 56/56/171
f 58/57/172 57/58/173 47/48/174
f 57/58/173 46/47/175 47/48/174
f 60/67/176 59/70/177 61/61/178
f 59/70/177 62/62/179 61/61/178
f 66/63/180 65/64/181 63/65/182
f 63/65/182 65/64/181 64/66/183
f 63/65/184 39/41/185 66/63/186
f 39/41/185 40/40/187 66/63/186
f 45/44/188 46/47/189 57/58/190
f 55/55/191 62/62/192 54/69/193
f 54/69/193 62/62/192 59/70/194
f 65/64/195 66/63/196 56/56/197
f 66/63/196 41/39/198 56/56/197
f 40/40/199 41/39/200 66/63/201
f 58/57/202 47/48/203 49/49/204
f 47/48/203 48/46/205 49/49/204
f 60/67/206 61/61/207 50/68/208
f 61/61/207 51/51/209 50/68/208
f 53/53/210 63/65/211 52/52/212
f 63/65/211 64/66/213 52/52/212
f 63/65/214 53/53/215 39/41/216
f 38/38/217 39/41/216 53/53/215
f 50/50/218 8/18/219 52/52/220
f 52/52/220 8/18/219 26/23/221
f 60/59/222 50/50/223 64/66/224
f 64/66/224 50/50/223 52/52/225
f 60/59/226 64/66/227 59/60/228
f 65/64/229 59/60/228 64/66/227
f 56/56/230 54/54/231 65/64/232
f 54/54/231 59/60/233 65/64/232
f 54/54/234 56/56/235 43/43/236
f 42/42/237 43/43/236 56/56/235
f 51/51/238 49/49/239 32/20/240
f 49/49/239 7/15/241 32/20/240
f 49/49/242 51/51/243 58/57/244
f 61/61/245 58/57/244 51/51/243
f 57/58/246 58/57/247 62/62/248
f 62/62/248 58/57/247 61/61/249
f 62/62/250 55/55/251 57/58/252
f 55/55/251 45/44/253 57/58/252
f 44/45/254 45/44/255 55/55/256
